<?xml version="1.0" encoding="utf-8"?>
<!-- Generator: Adobe Illustrator 23.0.5, SVG Export Plug-In . SVG Version: 6.00 Build 0)  -->
<svg version="1.1" id="Слой_1" xmlns="http://www.w3.org/2000/svg" xmlns:xlink="http://www.w3.org/1999/xlink" x="0px" y="0px"
	 viewBox="0 0 512 512" style="enable-background:new 0 0 512 512;" xml:space="preserve">
<style type="text/css">
	.st0{fill:#9FA1A4;}
</style>
<g>
	<path class="st0" d="M402.9,36.3l93.1,81.5l-31.6,36.1l-91.9-82.9L402.9,36.3z"/>
	<path class="st0" d="M299.5,233.6h-133v133h133V233.6z"/>
	<path class="st0" d="M87,0h229.9c23.7,0,42.9,19.3,42.9,42.9v56.9l93.2,84.2v255.3c0,40.1-31.4,72.7-70,72.7H87
		c-38.6,0-70-32.6-70-72.7V72.7C17,32.6,48.4,0,87,0z M316.9,30H136.7l46.9,53.4h146.1V42.9C329.8,35.8,324,30,316.9,30z
		 M90.5,421.4l21.2,21.2l46-46h150.6l46,46l21.2-21.2l-46-46V224.8l46-46l-21.2-21.2l-46,46H157.7l-46-46l-21.2,21.2l46,46v150.6
		L90.5,421.4z"/>
</g>
</svg>
