<?xml version="1.0" encoding="utf-8"?>
<!-- Generator: Adobe Illustrator 23.0.5, SVG Export Plug-In . SVG Version: 6.00 Build 0)  -->
<svg version="1.1" id="Layer_1" xmlns="http://www.w3.org/2000/svg" xmlns:xlink="http://www.w3.org/1999/xlink" x="0px" y="0px"
	 viewBox="0 0 512 512" style="enable-background:new 0 0 512 512;" xml:space="preserve">
<style type="text/css">
	.st0{fill:#FDB94C;}
</style>
<path class="st0" d="M444.7,150.2L444.7,150.2c3.4-7.1,5.3-14.5,5.3-22.2V96c0-53-86-96-192-96S66,43,66,96c0-2.6,0.4-5.2,0.8-7.8
	C27.1,105.8,2,131.4,2,160v32c0,29.7,27,56.2,69.3,73.8l0,0C68,272.9,66,280.4,66,288v32c0,11.3,4.1,22,11.2,32
	C70.1,362,66,372.8,66,384v32c0,53,86,96,192,96s192-43,192-96v-32c0-11.4-4.2-22.3-11.5-32.5c-0.1,0.1-0.1,0.2-0.2,0.2
	c5.4-7.6,9.6-15.6,10.9-24c39.7-17.6,64.8-43.2,64.8-71.8v-32C514,194.3,487,167.8,444.7,150.2z M258,16c103.7,0,176,42.2,176,80
	c0,37.8-72.3,80-176,80S82,133.8,82,96C82,58.2,154.3,16,258,16z M18,160c0-18.7,17.7-38.3,48-53.5V128c0,53,86,96,192,96
	c15.8,0,31.2-1.1,45.9-2.9C274.5,232.4,237.3,240,194,240C90.3,240,18,197.8,18,160z M434,384c0,37.8-72.3,80-176,80
	S82,421.8,82,384c0-6.3,2.7-12.7,6.5-19c0,0-0.1-0.1-0.1-0.2C120.6,395.3,184.4,416,258,416c73.7,0,137.2-20.9,169.4-51.3
	c0,0,0,0-0.1,0.1C431.3,371.1,434,377.6,434,384z M367.9,349.1C338.6,360.4,301.3,368,258,368c-103.7,0-176-42.2-176-80
	c0-5.4,1.9-10.9,4.7-16.4c15.7,5.3,33,9.4,51.6,12.2C162.2,323.3,235.3,352,322,352c15.9,0,31.3-1.1,46.1-2.9
	C368,349.1,368,349.1,367.9,349.1z M322,304c-41.1,0-76.9-6.8-105.6-17.1c90.2-5.3,161.5-41.5,168.8-87.2
	c21.8-9.7,39.2-21.7,50.4-35.4c0,0,0,0,0,0c38.8,15.8,62.4,38.3,62.4,59.6C498,261.8,425.7,304,322,304z M292.2,119.3
	c0-3.4-2.7-6-8.1-7.7c-5.4-1.8-17.3-4-35.9-6.7c-16.7-2.3-29.7-4.7-39.1-7s-17-5.6-22.8-9.7c-5.8-4.2-8.8-9.1-8.8-14.6
	c0-7.3,5.3-13.8,15.7-19.6c10.4-5.8,26.9-9.3,49.3-10.6V32h30.3v11.4c33.9,1.7,55.8,9.5,65.8,23.6l-41.8,7
	c-8.2-9.6-20.7-14.4-37.8-14.4c-8.6,0-15.4,1.1-20.6,3.3c-5.2,2.1-7.8,4.8-7.8,7.8c0,3.1,2.5,5.5,7.5,7.2c5,1.7,15.7,3.7,32.1,6.2
	c18,2.7,32.1,5.2,42.3,7.6c10.3,2.4,18.4,5.7,24.5,9.9c6.1,4.2,9.2,9.2,9.2,14.8c0,8.7-6.3,15.9-18.9,21.7s-30.8,9.2-54.6,10.2V163
	h-30.3v-14.8c-39.7-1.7-64.2-11.1-73.7-28.3l46.9-5c4.3,10.8,18.7,16.2,43.1,16.2c11.4,0,19.8-1.2,25.2-3.5S292.2,122.6,292.2,119.3
	z"/>
</svg>
