<?xml version="1.0" encoding="utf-8"?>
<!-- Generator: Adobe Illustrator 23.0.5, SVG Export Plug-In . SVG Version: 6.00 Build 0)  -->
<svg version="1.1" id="Слой_1" xmlns="http://www.w3.org/2000/svg" xmlns:xlink="http://www.w3.org/1999/xlink" x="0px" y="0px"
	 viewBox="0 0 1280 640" style="enable-background:new 0 0 1280 640;" xml:space="preserve">
<style type="text/css">
	.st0{fill:#FBFEFF;stroke:#231F20;stroke-width:3;stroke-miterlimit:10;}
</style>
<g transform="translate(0.000000,640.000000) scale(0.100000,-0.100000)">
	<path class="st0" d="M4748.7,5611c-7.9-1.1-61.3-10.9-116.6-20.8c-116.6-20.8-306.4-70.1-420.1-109.5
		c-450.7-157.6-818.4-394.1-1152.5-742.2c-379.6-396.3-772-682-1360.1-994c-386.5-205.8-947.9-439-1416.5-590.1
		c-60.3-19.7-108.7-38.3-106.8-41.6c7.9-8.8,397.4,119.3,663.3,218.9c778.9,291.2,1421.4,633.9,1886,1006.1
		c122.6,99.6,159.1,132.5,385.5,353.6c208.6,204.7,314.3,296.7,461.6,406.2c321.2,237.6,691.9,397.4,1156.5,497
		c51.4,10.9,81.1,20.8,64.2,20.8C4777.4,5615.4,4756.6,5613.2,4748.7,5611z"/>
	<path class="st0" d="M5925,5542c-57.3-4.4-113.7-14.2-125.5-20.8c-44.5-27.4-36.6-37.2,150.2-199.2c49.4-42.7,173-162,275.8-266
		c214.5-216.8,240.2-237.6,336.1-272.6c64.2-23,87-25.2,282.7-25.2c116.6,0,388.5,6.6,603,15.3c425,16.4,1345.3,10.9,1596.4-8.8
		c76.1-6.6,170-14.2,207.6-16.4l69.2-6.6l-93.9,50.4C8920,4957.5,7980,5349.4,7748.7,5409.6c-125.5,32.8-545.6,89.8-899.5,120.4
		C6688.1,5544.2,6064.3,5553,5925,5542z"/>
	<path class="st0" d="M4921.7,5420.5c-197.7-25.2-444.8-93.1-672.2-185c-126.5-50.4-173-78.8-173-101.8c0-4.4,37.6-52.5,82-107.3
		c93.9-109.5,178.9-243,249.1-388.6c26.7-53.6,48.4-99.6,49.4-101.8c2-2.2,200.7,5.5,1376.9,56.9c180.9,7.7,330.1,16.4,333.1,18.6
		c4.9,6.6-81.1,158.7-140.4,247.4C5833,5146.8,5575,5340.6,5299.3,5403C5204.4,5424.9,5024.5,5432.6,4921.7,5420.5z"/>
	<path class="st0" d="M3745.4,4984.8c-277.8-157.6-424-290.1-557.5-503.6c-12.9-19.7-21.7-38.3-19.8-40.5c2-2.2,28.7,3.3,58.3,12
		c139.4,40.5,501.1,70.1,851.1,70.1c245.1,0,245.1,0,202.6,96.3c-50.4,112.8-157.2,280.3-234.3,366.7
		C3946.1,5097.6,3943.1,5097.6,3745.4,4984.8z"/>
	<path class="st0" d="M8346.7,4676.1c-84-4.4-348.9-14.2-588.1-20.8c-239.2-7.7-441.8-15.3-449.7-16.4c-7.9-2.2,43.5-4.4,113.7-5.5
		c516-5.5,1264.2-89.8,1907.7-214.6c108.7-20.8,266.9-51.5,350.9-66.8c186.8-32.8,240.2-50.4,336.1-102.9
		c283.7-157.6,575.3-447.8,793.7-788.2c22.7-36.1-156.2,363.5-241.2,538.6c-69.2,141.2-81.1,191.6-53.4,216.8
		c31.6,28.5,451.7,65.7,754.2,65.7c163.1,0,382.5-44.9,581.2-120.4c47.4-17.5,89-30.7,90.9-27.4c7.9,8.8-222.4,124.8-324.2,162
		C11229,4440.7,10545,4559,9518,4659.7C9313.4,4680.5,8591.8,4690.3,8346.7,4676.1z"/>
	<path class="st0" d="M11050.1,4204.3c-307.4-14.2-380.6-24.1-402.3-53.6c-29.7-40.5-21.7-89.8,34.6-211.3
		c68.2-144.5,177.9-336.1,233.3-404c23.7-29.6,66.2-66.8,93.9-82.1c48.4-28.5,58.3-29.6,292.6-37.2c267.9-9.9,648.4-29.6,758.1-39.4
		c66.2-5.5,72.2-4.4,95.9,21.9c19.8,21.9,25.7,39.4,25.7,76.6c0,83.2-97.9,427-143.3,502.5c-52.4,87.6-172,141.2-452.7,205.8
		C11425.7,4219.6,11405,4220.7,11050.1,4204.3z"/>
	<path class="st0" d="M8983.2,4190c-42.5-20.8-99.8-88.7-105.8-125.9c-17.8-99.6,101.8-284.6,231.3-356.9
		c153.2-86.5,347.9-72.3,404.3,30.7c73.1,132.5-59.3,324-298.5,432.4C9139.4,4204.3,9028.7,4213,8983.2,4190z"/>
	<path class="st0" d="M9300.5,4163.8c180.9-106.2,280.7-222.2,281.7-324c0-47.1-35.6-122.6-77.1-159.8
		c-41.5-38.3-36.6-41.6,16.8-10.9c74.1,41.6,110.7,118.2,94.9,199.2c-26.7,136.8-139.4,251.8-310.4,316.4
		C9225.4,4215.2,9223.4,4209.7,9300.5,4163.8z"/>
	<path class="st0" d="M9709.8,4190c-153.2-96.3-13.8-444.5,227.3-570.4c249.1-131.4,416.1-20.8,336.1,221.1
		c-17.8,51.5-38.5,82.1-111.7,163.1c-73.1,81-106.8,108.4-176.9,146.7c-77.1,42.7-95.9,48.2-168,51.5
		C9758.2,4205.4,9728.5,4201,9709.8,4190z"/>
	<path class="st0" d="M10086.4,4121.1c169-150,254-289,245.1-399.6c-3-31.7-8.9-67.9-12.8-79.9c-6.9-19.7-4.9-18.6,17.8,4.4
		c14.8,14.2,33.6,47.1,42.5,72.3c12.8,38.3,13.8,53.6,4,94.1c-24.7,102.9-126.5,212.4-291.6,315.3l-39.5,24.1L10086.4,4121.1z"/>
	<path class="st0" d="M12106.8,3948.1c-11.9-32.8,7.9-94.1,85-263.8c98.8-220,157.2-292.3,174-216.8c13.8,61.3-60.3,271.5-138.4,393
		C12168.1,3951.4,12119.6,3986.4,12106.8,3948.1z"/>
	<path class="st0" d="M7402.7,3760.9c162.1-27.4,289.6-119.3,381.5-274.8c140.4-238.7,189.8-652.5,127.5-1076.1
		c-45.5-305.4-127.5-515.6-257-656.8c-74.1-81-157.2-132.5-266.9-163.1l-74.1-21.9h89.9c431-3.3,702.8,397.4,722.6,1066.3
		c7.9,277-27.7,477.3-124.5,700.6c-81.1,186.1-184.8,309.8-322.2,383.2c-89,47.1-151.2,60.2-269.8,59.1l-95.9-1.1L7402.7,3760.9z"/>
	<path class="st0" d="M3226.5,3372.3c0-16.4,108.7-362.4,126.5-399.6c24.7-53.6,87-117.1,137.4-142.3
		c41.5-19.7,152.2-23,1619.1-47.1c397.4-6.6,837.2-14.2,978.6-16.4l257-5.5l-296.5,20.8c-163.1,12-527.8,36.1-810.5,54.7
		c-1359.1,86.5-1525.2,98.5-1592.4,114.9c-137.4,32.8-248.1,133.6-361.8,328.4C3252.2,3333.9,3226.5,3375.5,3226.5,3372.3z"/>
	<path class="st0" d="M3621.9,2607c-138.4-21.9-261-42.7-271.8-46c-23.7-5.5,420.1-17.5,1032.9-26.3
		c422.1-6.6,1509.4,10.9,1675.4,27.4c57.3,5.5-9.9,9.9-242.2,15.3c-393.4,8.8-1422.4,47.1-1843.5,66.8
		C3893.7,2647.5,3823.5,2641,3621.9,2607z"/>
	<path class="st0" d="M8401,2574.2c-5.9-9.9,13.8-526.6,20.8-535.3c4.9-6.6,238.2-31.7,498.2-54.7
		c714.7-62.4,1383.8-79.9,2046.1-55.8c1014.2,37.2,1416.5,90.9,1578.6,211.3c87,64.6,101.8,147.8,47.4,278.1l-24.7,60.2l-29.7-27.4
		c-157.2-146.7-1059.6-235.4-1981.9-193.8c-426,18.6-848.1,43.8-928.2,54.7c-132.5,18.6-229.3,79.9-298.5,192.7l-38.5,61.3
		l-51.4-7.7c-52.4-6.6-742.3,12-800.7,21.9C8421.8,2583,8405,2580.8,8401,2574.2z"/>
	<path class="st0" d="M8180.6,2337.7c-34.6-262.7-154.2-509.1-317.3-653.6c-69.2-60.2-234.3-160.9-264.9-160.9
		c-6.9,0-12.9-5.5-12.9-13.1c0-8.8,52.4-9.9,205.6-5.5c240.2,8.8,373.6,23,424,46c51.4,24.1,289.6,260.5,289.6,286.8
		c0,6.6-54.4,14.2-120.6,18.6c-179.9,10.9-166.1-10.9-172,269.3c-2,129.2-7.9,251.8-11.9,272.6
		C8193.5,2430.8,8191.5,2424.2,8180.6,2337.7z"/>
	<path class="st0" d="M2213.3,2284.1c213.5-43.8,1996.7-347,2060.9-351.4c40.5-2.2,465.6-5.5,944-7.7c777.9-3.3,849.1-2.2,672.2,9.9
		c-801.6,55.8-1832.6,155.5-3187.8,305.4c-242.2,27.4-468.5,51.5-504.1,54.7l-64.2,4.4L2213.3,2284.1z"/>
	<path class="st0" d="M11588.8,1816.6c-62.3-4.4-372.6-9.9-689-12c-317.3-1.1-576.3-5.5-576.3-8.8c0-8.8,93.9-98.5,161.1-154.4
		c66.2-54.7,204.6-132.5,283.7-159.8c159.1-53.6,338.1-53.6,514-1.1c90.9,27.4,253,111.7,337.1,175.2c66.2,49.3,167,148.9,167,164.2
		C11786.5,1830.9,11749.9,1830.9,11588.8,1816.6z"/>
</g>
</svg>
