<svg id="Слой_1" data-name="Слой 1" xmlns="http://www.w3.org/2000/svg" viewBox="0 0 1279.99 561.36"><defs><style>.cls-1{fill:#fff;}</style></defs><title>small_car_white</title><path class="cls-1" d="M400,40.1c-65.8,2.4-126.6,11.1-173.9,24.8C164.6,82.8,122,106.9,83,146,39,190,12.1,240.5,3.5,295.1,1.9,305.6,0,340.6,0,361.5a181,181,0,0,0,5,42c2.7,11.7,10.2,35.7,10.9,34.9a12.59,12.59,0,0,0,1.6-3.6c1-2.7,1.3-1.9,2.9,8.3C22.6,457,26.1,469.2,30,477c8.7,17.3,18.9,20.8,57.1,19.7,22.4-.6,25.8-1.4,31.2-6.5,3.7-3.5,6.2-8.4,7.6-15,1.9-9,.9-9.5-2.9-1.5-3.1,6.7-6.6,10.9-10.5,12.7-3.4,1.7-18.2,2.2-25.7,1l-3.6-.6,2.8-4c3.9-5.3,8.5-19.8,10.9-33.8,7.2-42.4,3.5-85.6-9.2-108-3.9-6.9-12.1-15-17.2-17.1C61,320,61,320,69,320.3c5.2.3,8.8,1.1,11.8,2.6,16.1,8.3,30.1,33,41.2,73.4,3.6,12.8,3.8,9.2.4-5.6-6.7-29.4-19-55.3-31.6-66.2-7.4-6.5-14.1-9-23.3-8.9-9.6.1-17.2,2.8-27.1,9.9C21.6,338.9,15.6,359.7,16,410c.1,9.1.1,18.7,0,21.5l-.2,5-1.4-5c-.8-2.8-2.4-10.2-3.5-16.5-3.9-21.5-3.5-88.3.7-117,7.7-52.6,35.8-104.1,80.5-147.5,25.8-25.1,55.1-44.4,89.1-58.9,13.4-5.8,15.1-5.9,3.3-.2-22.2,10.6-48.8,30.9-73.1,55.7-23.1,23.7-30.5,37.5-26.3,48.6,1.3,3.6,4.7,7.3,7.9,8.5,5,1.9,105.1,13.5,157,18.2,28.4,2.6,59.2,4.9,88,6.6,30.8,1.8,106.1,3.3,127.2,2.5l20.7-.7.7-3c1.1-5.3-.7-18-3.8-26.5-4.1-11.4-16.9-37.1-27.3-54.8-15.4-26.2-42.7-66.6-44.1-65.2-.3.3,2.7,6,6.7,12.8,25.1,43.3,40.1,71.4,48.2,89.9,5.3,12.3,14.7,38.3,14.7,41,0,1.1-6.4,1.2-36.7.7-66.6-1.2-124.9-5.3-205.1-14.2-56.4-6.4-140.2-17.4-142-18.8-9.6-7.4,32.1-53.6,73.8-81.6,24.2-16.3,48.4-25.2,92.7-34.1,23.5-4.8,41.3-6.8,80.8-9,9.9-.5,20.9-1.3,24.5-1.7l6.5-.7-4.5-.7c-6.7-1.2-63.6-1.1-78,.1-13.8,1.1-37.5,4.9-54.4,8.6-6,1.3-11.1,2.2-11.3,2-.4-.4,24.9-6.6,38.2-9.5,25.6-5.5,61.9-10.2,101.5-13.3,25.6-2,118.2-1.7,148.5.5C605,59.8,680,71.1,736.9,86.6c19.9,5.4,30.4,9.4,47.9,18.5,27.3,14.1,44.8,27,102.2,75.9,25.8,22,50.7,40.2,68.5,50a112.79,112.79,0,0,0,18.8,7.6c12.8,4,50.3,13.3,77.7,19.4,82,18.2,124.6,34.2,159.5,60,21,15.5,23.4,18.9,27.5,39.5s9.3,28.2,21,30c9.2,1.4,8.4-1.2,7.7,24.4-.4,12.4-1,23.8-1.3,25.3-.5,2.4-.8,2.5-2.1,1.3a5.08,5.08,0,0,0-2.6-1.5c-3.2,0-19.1,3-19.7,3.7s-3.1,17.8-5.4,38.1l-1.2,11.4,2.5,1c4.8,1.9,11.7,2.1,15,.5l3.1-1.5-.6,2.6c-1.4,5.9-7.5,17.1-11.1,20.2-5.3,4.7-14.9,8.9-24,10.6-11.1,2-505.2,20.8-509,19.3-4.3-1.6-8-5.6-14.4-15.1-12.4-18.9-17.7-34.8-22.9-69.3-7.9-52.5-12.9-68.5-28.1-90-8.9-12.6-30.4-33.8-39.6-39.2-19.7-11.5-37.5-11.7-54.3-.6-21.3,14.1-40.8,49.3-52.9,95.5-3.5,13.2-3.9,16.7-1,9.3,1-2.8,1.7-3.9,1.5-2.5-2.8,15.4-3.7,50.8-1.7,67.5,5.6,45.7,20.6,78.7,41.3,90.9,15.6,9.1,42.2,12,103.8,11,40.5-.6,47.5-1.5,58.3-7.1,11.4-6,21.9-19.5,23.3-29.9.5-3.9.5-3.8-3.2,2.6-8,13.8-20.8,23-34.6,24.9-7.9,1.1-88.6-1.2-104.3-2.9-13.5-1.5-26.6-4.5-33.1-7.4-16.4-7.5-28.8-31.7-35.5-69.2-2.1-11.3-2.4-16.1-2.4-39.4,0-23.1.3-28.1,2.2-38.5,3.2-17.1,6.7-28.5,12.3-40.1,14-29,34.7-40.6,61.7-35,32.1,6.8,52.9,36.2,60.9,86.2,2.4,15,2.9,48.8,1.1,66.5-3.7,34-11.3,59.2-21.3,69.6-4.5,4.7-8.2,5.5-12.2,2.7-3.6-2.5-3.7-1-.2,2,12.2,10.2,27.9-8.9,37.4-45.4,10.6-40.4,11.2-87.6,1.6-123.8-10.2-38.1-31.9-63-62-70.9-10-2.6-28.5-2.4-37.5.4-8.4,2.6-17,8-24.2,15.1-2.9,2.8-5.3,4.8-5.3,4.5,0-1.9,11.9-17.2,18.5-23.8,10.7-10.7,18.6-14.7,30.1-15.3,13.5-.7,23.3,3.2,38,15,11.4,9.2,28.1,29.5,35.5,43.2,8.1,15.1,11.3,27.5,17,65.6,6.5,44.5,9.9,56.7,21,76.1,7.2,12.5,13.3,19.9,19.6,23.6l4.5,2.6,26.4-.6c14.5-.4,52.8-1.6,85.1-2.7s86.7-2.9,120.8-4,75.1-2.4,91-3,57.6-1.9,92.5-3c86.1-2.7,96.9-3.3,105-6,12-4,19.6-9,25.9-17,11.2-14.2,21.1-58.6,22.8-102.5,1.1-30.2-.4-34.5-13.5-36.9-4-.8-8.2-2.2-9.2-3.1-2.4-2.2-4.3-8-7.4-22.7-3.3-15.7-5.3-19.7-13.6-27.9-32.2-31.7-83.6-54.5-164.2-72.9-9.8-2.2-25.8-5.8-35.5-8-23.1-5.3-47.4-11.5-59.2-15.1-18.4-5.7-45.4-23.8-83.1-55.9-61.2-52-77.3-63.7-108.5-79.1C763.4,81.1,747.8,76,712,68,642.5,52.6,559.7,42.8,474,40,442.3,38.9,430.1,39,400,40.1ZM64.3,336.4c10,4.3,18.1,20.4,22.2,44.4,4.8,27.9,3.3,74.1-3,95.6-2,6.5-4.1,8.9-6.7,7.5-1.8-1-1.9-.8-1.3,1.1.7,2.2.6,2.2-6.1,1.5-20.2-2-25.2-5.3-29.9-19.4-5.8-17-8-36.8-7.2-64,.8-26.2,3.7-41.9,10.3-55.2,4.3-8.6,9.1-12.9,14.5-12.9A21,21,0,0,1,64.3,336.4ZM1260.1,455c-5.4,20.5-6.4,22.4-14.3,27.3-3.4,2.1-3.3,3.7-.8-18.3,1.1-9.6,2-17.8,2-18.1s3-1.4,6.8-2.3a57.78,57.78,0,0,0,8.2-2.6c.8-.5,1.5-.8,1.6-.7S1262.1,447,1260.1,455Z" transform="translate(0 -39.22)"/><path class="cls-1" d="M503,68.6c-20.6.7-45.5,1.7-55.3,2.1l-17.7.8,6.5,9.5c10.5,15.2,18.9,29.8,32.4,56,21.8,42.8,29.8,59.9,37.6,80.8,1.7,4.5,3.2,7.2,3.9,6.9,3.2-1.2,18.7-3.8,33.6-5.6,30.6-3.8,44.7-4.5,89.5-4.5,59.4,0,86,1.4,233,11.9,53.9,3.9,77.3,5.1,76.3,4.1-2.8-3.1-121-16.7-195.3-22.5-77.7-6.2-152.6-7.1-192.2-2.6-14,1.7-27.1,4.9-36.2,9.1-6.2,2.8-7.1,2.9-7.1.9,0-2.5-11.5-36.3-16.5-48.4-12.8-31.3-29.2-57-54.2-85.6l-7.7-8.7,7.5.5c11.9.9,134.9,2.9,140.4,2.3,7.4-.8,67.3,1.2,87.5,2.9,17.8,1.5,26.7,1.9,25.9,1-.3-.2-6.1-1.5-12.9-2.9-14.2-2.9-38.8-6-60-7.6C599,67.2,543.8,67,503,68.6Z" transform="translate(0 -39.22)"/><path class="cls-1" d="M529.4,223.9a5.57,5.57,0,0,0,2.8,1.4c12.6,3,78.2,19.6,90,22.8,71.2,19.2,122.7,39.5,155.5,61.2,6.8,4.4,12.2,8.2,12,8.3s-12.6,2.4-27.7,4.9-27.6,4.8-27.7,4.9-2,10-4.3,22.1-4.4,23-4.6,24.2c-.7,2.7-4.9,2,52.1,8.3l46,5,67.2-1c63.6-.9,67.4-1,71-2.9,8-4.1,13.3-12.7,13.2-21.3v-5.3l-1.3,4c-2.5,8-6,12.7-12.8,17-2.6,1.6-5,1.6-36,.5-18.3-.6-48.7-1.4-67.5-1.8s-34.4-1-34.7-1.3-1.2-5.7-2.1-12.1c-1.5-11.7-5.3-26.5-8.1-32-.8-1.6-1.4-3.1-1.2-3.3.5-.4,38.8,1.3,54.8,2.5,56.7,4.2,91.7,11.9,104.3,22.9,4.2,3.7,4.6,3.3,1.6-1.5-10.8-17.5-70.1-30.9-154.9-35l-14.5-.7-7.5-6.4c-35.6-30.7-105.7-58.7-190.5-76.3C569.7,225.8,527.4,220.7,529.4,223.9ZM806.5,337.7c3.6,7.2,13.7,36.4,12.9,37.2-.6.6-86.3-3.4-87-4.2-.6-.6,7.1-31.9,8.6-34.8.7-1.2,7-2.2,29.2-4.8,15.6-1.9,28.5-3.5,28.7-3.7C799.9,326.5,803.1,330.8,806.5,337.7Z" transform="translate(0 -39.22)"/><path class="cls-1" d="M27.6,259.9c1.6,1.6,32.8,5.2,78.9,9,34.7,2.9,47.3,3.9,155,11.6,181.4,13,277.5,22.2,380.5,36.6,53.6,7.5,79.2,10.9,81.2,10.9,7.4,0-8.7-4.5-38.7-10.9-39-8.2-104.9-18.8-155.5-25-44.7-5.5-67.7-7.9-104-11.1-12.9-1.1-28.2-2.5-34-3-52.6-5.1-195.7-13.3-305.9-17.5C40.2,258.7,26.2,258.6,27.6,259.9Z" transform="translate(0 -39.22)"/><path class="cls-1" d="M1213.8,333.4c-13,5.4-22.7,13.7-24.8,21.6-3.1,11.6,5.4,23.7,22.5,31.7,5.4,2.5,7.1,2.8,16,2.7,9.9,0,17.5-1.9,17.5-4.3,0-1.2-.7-1.4-13-3.6-9.7-1.8-14.7-3.9-22.8-9.9-6.7-5-9.8-10-8.8-14.2.5-1.7,4.9-7.1,11.2-13.4C1224.8,330.6,1225.2,328.7,1213.8,333.4Z" transform="translate(0 -39.22)"/><path class="cls-1" d="M1013,351c-24.4,1-35.8,2.5-33.7,4.6,2.2,2.3,47.5,5.6,94.6,6.9,21.4.6,22.5.7,24.2,2.8,2.5,3,2.4,3.7-1,3.7-2,0-3,.6-3.4,2-.8,3,4.9,2.9,5.8-.1l.7-2.1,2.2,2.1c2.2,2,6.6,2.9,6.6,1.3s-2.5-3.2-5.3-3.2c-2.6,0-2.9-.3-2.3-2.3a24.52,24.52,0,0,0,.6-2.8c0-.3,12.7-.9,28.3-1.3,38.7-1,55.7-2.4,55.7-4.6,0-.9-6.6-2.4-15-3.4C1147.7,351.6,1052.4,349.4,1013,351Z" transform="translate(0 -39.22)"/><path class="cls-1" d="M989,362.4c0,1.4,16.9,8.6,28.4,12.1a260.17,260.17,0,0,0,122.1,7.4c14.3-2.4,35.5-8.3,42.5-11.7l5.5-2.6-4.2-.4c-2.3-.2-16.4,1.1-31.5,2.9-24.3,2.9-30.3,3.3-54.3,3.3-30.2,0-42.1-1.1-76.5-7.1C999.5,362.6,989,361.3,989,362.4Z" transform="translate(0 -39.22)"/><path class="cls-1" d="M1028.6,400.2c-.3,2.9-.8,10.4-1.2,16.5l-.7,11.3h-23.6c-13.7,0-25.2.5-27.5,1.1-8.5,2.4-16.5,13.6-22.2,30.9-2.3,7.2-2.7,10.2-2.7,20-.1,13.6,2.1,20.6,8.5,27.6,6.2,6.8,11.2,8.7,22.1,8.5,27.5-.3,163.6-7.3,206.7-10.6,15.1-1.2,18.9-1.8,21-3.3a19.64,19.64,0,0,0,6.5-10.7l.6-3-1.8,2.5c-1,1.3-3.1,3.9-4.7,5.7l-2.8,3.3h-20.5c-26.7,0-113.5,1.8-167.3,3.4-45.7,1.4-46.2,1.4-50.7-3.5-5.8-6.3-7.4-20.7-3.9-33.9,2.3-8.5,7.7-19.9,11.1-23l2.7-2.5,23.9-.3,23.8-.3-.6,8-.6,8.1h172.1l.6-2.3a40.59,40.59,0,0,0,.6-7.3,60.48,60.48,0,0,1,.6-8.3c.6-3,.8-3.1,6.4-3.1,7.3,0,9.7,1.8,13.6,10.2,2.5,5.6,2.8,7.3,2.7,15.3a66,66,0,0,1-2.7,18c-1.4,4.9-2.4,9.1-2.1,9.3.7.7,5.4-8.4,7.5-14.8,4.5-13.1,3.6-26.3-2.4-36.2-3.9-6.6-7.9-8.9-16.2-9.6l-6.6-.5.6-3.1c.3-1.7.8-8.8,1.2-15.9l.7-12.7H1029.2Z" transform="translate(0 -39.22)"/><path class="cls-1" d="M824.4,452.3c1.3,18.9,3.7,26.2,11.1,34.5,9.5,10.5,21.7,14.2,47,14.1,9.4,0,22.4-.6,29-1.2l12-1.2.8-13.5c1-15.4.1-35.1-1.7-37.5-2-2.8-11.9-3.5-56-4.2l-42.9-.6Zm53.6-3.1c17.3.1,34.3-.2,37.6-.6l6.2-.8-.9,4.4c-.5,2.3-1.2,12.6-1.5,22.7l-.7,18.4-15.6-.6c-17.1-.6-38.1-3.6-46.9-6.7a33,33,0,0,1-9-4.8c-4.2-3.3-10.3-13.7-14.8-25.1l-3.3-8.3,8.7.6C842.6,448.8,860.7,449.2,878,449.2Z" transform="translate(0 -39.22)"/><path class="cls-1" d="M1124.6,545.2c-.7,1.3-2.6,4.3-4.1,6.7-3.9,6.4-11.2,13.8-16.5,16.9-4.3,2.6-5.2,2.7-21.5,3-25.1.5-75.6-1.5-84.5-3.3-10.9-2.2-16.7-5.4-24.6-13.7-6.8-7.2-6.9-7.3-7.2-4.4-.5,4.2,5,14.6,10.4,19.6,13.4,12.4,37.9,16.6,91.5,15.8,25.4-.4,27.8-.6,33-2.6a42.14,42.14,0,0,0,26.6-35C1128.3,542.5,1127.1,541.3,1124.6,545.2Z" transform="translate(0 -39.22)"/></svg>