<?xml version="1.0" encoding="utf-8"?>
<!-- Generator: Adobe Illustrator 23.0.5, SVG Export Plug-In . SVG Version: 6.00 Build 0)  -->
<svg version="1.1" id="Слой_1" xmlns="http://www.w3.org/2000/svg" xmlns:xlink="http://www.w3.org/1999/xlink" x="0px" y="0px"
	 viewBox="0 0 1280 640" style="enable-background:new 0 0 1280 640;" xml:space="preserve">
<style type="text/css">
	.st0{fill:#FFFFFF;}
	.st1{font-family:'Calibri-BoldItalic';}
	.st2{font-size:142.2943px;}
</style>
<g transform="translate(0.000000,640.000000) scale(0.100000,-0.100000)">
	<path class="st0" d="M4000,5999c-658-24-1266-111-1739-248c-615-179-1041-420-1431-811c-440-440-709-945-795-1491
		c-16-105-35-455-35-664c0-139,16-275,50-420c27-117,102-357,109-349c3,3,11,19,16,36c10,27,13,19,29-83c22-139,57-261,96-339
		c87-173,189-208,571-197c224,6,258,14,312,65c37,35,62,84,76,150c19,90,9,95-29,15c-31-67-66-109-105-127c-34-17-182-22-257-10
		l-36,6l28,40c39,53,85,198,109,338c72,424,35,856-92,1080c-39,69-121,150-172,171c-95,39-95,39-15,36c52-3,88-11,118-26
		c161-83,301-330,412-734c36-128,38-92,4,56c-67,294-190,553-316,662c-74,65-141,90-233,89c-96-1-172-28-271-99
		c-188-134-248-342-244-845c1-91,1-187,0-215l-2-50l-14,50c-8,28-24,102-35,165c-39,215-35,883,7,1170c77,526,358,1041,805,1475
		c258,251,551,444,891,589c134,58,151,59,33,2c-222-106-488-309-731-557c-231-237-305-375-263-486c13-36,47-73,79-85
		c50-19,1051-135,1570-182c284-26,592-49,880-66c308-18,1061-33,1272-25l207,7l7,30c11,53-7,180-38,265c-41,114-169,371-273,548
		c-154,262-427,666-441,652c-3-3,27-60,67-128c251-433,401-714,482-899c53-123,147-383,147-410c0-11-64-12-367-7
		c-666,12-1249,53-2051,142c-564,64-1402,174-1420,188c-96,74,321,536,738,816c242,163,484,252,927,341c235,48,413,68,808,90
		c99,5,209,13,245,17l65,7l-45,7c-67,12-636,11-780-1c-138-11-375-49-544-86c-60-13-111-22-113-20c-4,4,249,66,382,95
		c256,55,619,102,1015,133c256,20,1182,17,1485-5c895-65,1645-178,2214-333c199-54,304-94,479-185c273-141,448-270,1022-759
		c258-220,507-402,685-500c42-23,126-58,188-76c128-40,503-133,777-194c820-182,1246-342,1595-600c210-155,234-189,275-395
		c41-207,93-282,210-300c92-14,84,12,77-244c-4-124-10-238-13-253c-5-24-8-25-21-13c-8,8-20,15-26,15c-32,0-191-30-197-37
		c-7-8-31-178-54-381l-12-114l25-10c48-19,117-21,150-5l31,15l-6-26c-14-59-75-171-111-202c-53-47-149-89-240-106
		c-111-20-5052-208-5090-193c-43,16-80,56-144,151c-124,189-177,348-229,693c-79,525-129,685-281,900c-89,126-304,338-396,392
		c-197,115-375,117-543,6c-213-141-408-493-529-955c-35-132-39-167-10-93c10,28,17,39,15,25c-28-154-37-508-17-675
		c56-457,206-787,413-909c156-91,422-120,1038-110c405,6,475,15,583,71c114,60,219,195,233,299c5,39,5,38-32-26
		c-80-138-208-230-346-249c-79-11-886,12-1043,29c-135,15-266,45-331,74c-164,75-288,317-355,692c-21,113-24,161-24,394
		c0,231,3,281,22,385c32,171,67,285,123,401c140,290,347,406,617,350c321-68,529-362,609-862c24-150,29-488,11-665
		c-37-340-113-592-213-696c-45-47-82-55-122-27c-36,25-37,10-2-20c122-102,279,89,374,454c106,404,112,876,16,1238
		c-102,381-319,630-620,709c-100,26-285,24-375-4c-84-26-170-80-242-151c-29-28-53-48-53-45c0,19,119,172,185,238
		c107,107,186,147,301,153c135,7,233-32,380-150c114-92,281-295,355-432c81-151,113-275,170-656c65-445,99-567,210-761
		c72-125,133-199,196-236l45-26l264,6c145,4,528,16,851,27s867,29,1208,40s751,24,910,30c160,5,576,19,925,30c861,27,969,33,1050,60
		c120,40,196,90,259,170c112,142,211,586,228,1025c11,302-4,345-135,369c-40,8-82,22-92,31c-24,22-43,80-74,227
		c-33,157-53,197-136,279c-322,317-836,545-1642,729c-98,22-258,58-355,80c-231,53-474,115-592,151c-184,57-454,238-831,559
		c-612,520-773,637-1085,791c-221,108-377,159-735,239c-695,154-1523,252-2380,280C4423,6011,4301,6010,4000,5999z M643,3036
		c100-43,181-204,222-444c48-279,33-741-30-956c-20-65-41-89-67-75c-18,10-19,8-13-11c7-22,6-22-61-15c-202,20-252,53-299,194
		c-58,170-80,368-72,640c8,262,37,419,103,552c43,86,91,129,145,129C593,3050,625,3044,643,3036z M12601,1850
		c-54-205-64-224-143-273c-34-21-33-37-8,183c11,96,20,178,20,181c0,4,30,14,68,23c37,10,74,21,82,26s15,8,16,7
		S12621,1930,12601,1850z"/>
	<path class="st0" d="M5030,5714c-206-7-455-17-553-21l-177-8l65-95c105-152,189-298,324-560c218-428,298-599,376-808
		c17-45,32-72,39-69c32,12,187,38,336,56c306,38,447,45,895,45c594,0,860-14,2330-119c539-39,773-51,763-41
		c-28,31-1210,167-1953,225c-777,62-1526,71-1922,26c-140-17-271-49-362-91c-62-28-71-29-71-9c0,25-115,363-165,484
		c-128,313-292,570-542,856l-77,87l75-5c119-9,1349-29,1404-23c74,8,673-12,875-29c178-15,267-19,259-10c-3,2-61,15-129,29
		c-142,29-388,60-600,76C5990,5728,5438,5730,5030,5714z"/>
	<path class="st0" d="M5294,4161c3-5,16-11,28-14c126-30,782-196,900-228c712-192,1227-395,1555-612c68-44,122-82,120-83
		c-1-2-126-24-277-49c-151-26-276-48-277-49s-20-100-43-221s-44-230-46-242c-7-27-49-20,521-83l460-50l672,10c636,9,674,10,710,29
		c80,41,133,127,132,213v53l-13-40c-25-80-60-127-128-170c-26-16-50-16-360-5c-183,6-487,14-675,18s-344,10-347,13s-12,57-21,121
		c-15,117-53,265-81,320c-8,16-14,31-12,33c5,4,388-13,548-25c567-42,917-119,1043-229c42-37,46-33,16,15c-108,175-701,309-1549,350
		l-145,7l-75,64c-356,307-1057,587-1905,763C5697,4142,5274,4193,5294,4161z M8065,3023c36-72,137-364,129-372c-6-6-863,34-870,42
		c-6,6,71,319,86,348c7,12,70,22,292,48c156,19,285,35,287,37C7999,3135,8031,3092,8065,3023z"/>
	<path class="st0" d="M276,3801c16-16,328-52,789-90c347-29,473-39,1550-116c1814-130,2775-222,3805-366c536-75,792-109,812-109
		c74,0-87,45-387,109c-390,82-1049,188-1555,250c-447,55-677,79-1040,111c-129,11-282,25-340,30c-526,51-1957,133-3059,175
		C402,3813,262,3814,276,3801z"/>
	<path class="st0" d="M12138,3066c-130-54-227-137-248-216c-31-116,54-237,225-317c54-25,71-28,160-27c99,0,175,19,175,43
		c0,12-7,14-130,36c-97,18-147,39-228,99c-67,50-98,100-88,142c5,17,49,71,112,134C12248,3094,12252,3113,12138,3066z"/>
	<path class="st0" d="M10130,2890c-244-10-358-25-337-46c22-23,475-56,946-69c214-6,225-7,242-28c25-30,24-37-10-37
		c-20,0-30-6-34-20c-8-30,49-29,58,1l7,21l22-21c22-20,66-29,66-13c0,17-25,32-53,32c-26,0-29,3-23,23c3,12,6,25,6,28s127,9,283,13
		c387,10,557,24,557,46c0,9-66,24-150,34C11477,2884,10524,2906,10130,2890z"/>
	<path class="st0" d="M9890,2776c0-14,169-86,284-121c405-122,803-146,1221-74c143,24,355,83,425,117l55,26l-42,4
		c-23,2-164-11-315-29c-243-29-303-33-543-33c-302,0-421,11-765,71C9995,2774,9890,2787,9890,2776z"/>
	<path class="st0" d="M10286,2398c-3-29-8-104-12-165l-7-113h-236c-137,0-252-5-275-11c-85-24-165-136-222-309c-23-72-27-102-27-200
		c-1-136,21-206,85-276c62-68,112-87,221-85c275,3,1636,73,2067,106c151,12,189,18,210,33c30,23,56,66,65,107l6,30l-18-25
		c-10-13-31-39-47-57l-28-33h-205c-267,0-1135-18-1673-34c-457-14-462-14-507,35c-58,63-74,207-39,339c23,85,77,199,111,230l27,25
		l239,3l238,3l-6-80l-6-81h860h861l6,23c3,12,6,45,6,73s3,66,6,83c6,30,8,31,64,31c73,0,97-18,136-102c25-56,28-73,27-153
		c-1-63-9-117-27-180c-14-49-24-91-21-93c7-7,54,84,75,148c45,131,36,263-24,362c-39,66-79,89-162,96l-66,5l6,31c3,17,8,88,12,159
		l7,127h-860h-861L10286,2398z"/>
	<path class="st0" d="M8244,1877c13-189,37-262,111-345c95-105,217-142,470-141c94,0,224,6,290,12l120,12l8,135c10,154,1,351-17,375
		c-20,28-119,35-560,42l-429,6L8244,1877z M8780,1908c173-1,343,2,376,6l62,8l-9-44c-5-23-12-126-15-227l-7-184l-156,6
		c-171,6-381,36-469,67c-31,11-72,32-90,48c-42,33-103,137-148,251l-33,83l87-6C8426,1912,8607,1908,8780,1908z"/>
	<path class="st0" d="M11246,948c-7-13-26-43-41-67c-39-64-112-138-165-169c-43-26-52-27-215-30c-251-5-756,15-845,33
		c-109,22-167,54-246,137c-68,72-69,73-72,44c-5-42,50-146,104-196c134-124,379-166,915-158c254,4,278,6,330,26
		c148,58,250,193,266,350C11283,975,11271,987,11246,948z"/>
</g>
<text transform="matrix(0.9775 8.183889e-02 -8.343343e-02 0.9965 126.9246 442.7002)" class="st0 st1 st2">MRPL</text>
</svg>
