<svg width="50" height="50" xmlns="http://www.w3.org/2000/svg">
 <title>134all</title>

 <g>
  <title>background</title>
  <rect x="-1" y="-1" width="52" height="52" id="canvas_background" fill="none"/>
 </g>
 <g>
  <title>Layer 1</title>
  <path stroke="null" d="m38.650932,3.138767l-2.468334,2.184376l5.71212,6.498493a6.138058,6.138058 0 1 0 3.626038,11.353237l0,20.205402a2.866982,2.866982 0 1 1 -5.728489,0l0,-12.248825a5.504612,5.504612 0 0 0 -5.510059,-5.49369l-2.730476,0l0,-23.252575a1.638275,1.638275 0 0 0 -1.638275,-1.638275l-27.075226,0a1.638275,1.638275 0 0 0 -1.638275,1.638275l0,45.325604a1.638275,1.638275 0 0 0 1.638275,1.638275l27.075226,0a1.638275,1.638275 0 0 0 1.638275,-1.638275l0,-18.796478l2.730476,0a2.222588,2.222588 0 0 1 2.233509,2.21714l0,12.226982a6.143532,6.143532 0 1 0 12.28159,0l0,-25.835598a7.372238,7.372238 0 0 0 -1.954998,-5.018593l-8.191376,-9.365475zm3.675198,17.671539a2.866982,2.866982 0 1 1 2.877903,-2.866982a2.866982,2.866982 0 0 1 -2.877903,2.866982zm-22.548126,18.567127a4.461571,4.461571 0 0 1 -6.487572,0a4.914825,4.914825 0 0 1 0,-6.700554l2.888824,-3.008961a0.491493,0.491493 0 0 1 0.709923,0l2.888824,3.008961a4.914825,4.914825 0 0 1 0,6.678711l0,0.021843zm7.110123,-18.599892a1.638275,1.638275 0 0 1 -1.638275,1.638275l-17.431267,0a1.638275,1.638275 0 0 1 -1.638275,-1.638275l0,-13.341026a1.638275,1.638275 0 0 1 1.638275,-1.638275l17.431267,0a1.638275,1.638275 0 0 1 1.638275,1.638275l0,13.341026z" id="svg_1" fill="#535353"/>
 </g>
</svg>