<svg width="50" height="50" xmlns="http://www.w3.org/2000/svg">
 <g>
  <title>background</title>
  <rect x="-1" y="-1" width="52" height="52" id="canvas_background" fill="none"/>
 </g>

 <g>
  <title>Layer 1</title>
  <path stroke="null" d="m47.062212,22.916542l-2.459167,0l0,4.918334l-3.27889,0l0,-2.664099l-8.743707,-11.339495l-10.246531,0l0,-2.595788l5.942987,0l0,-2.527479l-14.345144,0l0,2.527479l5.942987,0l0,2.595788l-8.060604,0l-4.645093,6.011299l0,0l-2.527479,0l0,3.893682l-2.049306,0l0,-4.986646l-1.502823,0l0,12.432457l1.502823,0l0,-4.986646l2.049306,0l0,3.893682l2.527479,0l0,0l0,0l8.675396,11.202874l25.479707,0l0,-4.918334l3.27889,0l0,4.918334l2.459167,0c1.024653,0 1.844376,-0.819723 1.844376,-1.844376l0,-14.686694c0.068309,-0.956344 -0.751412,-1.844376 -1.844376,-1.844376l0.000002,0.000005z" id="svg_1" fill="#535353"/>
  <g id="svg_2">
   <path d="m-126.4,39.6l13.9,0l0,1.1l-13.9,0l0,6c0,1.1 0.9,2 2,2l3.4,0l0,13.3c-1.5,0.5 -2.6,1.7 -3,3.3l-2.3,0l0,1.1l2.2,0l1.5,0c0.1,-1.7 1.5,-3.1 3.2,-3.1s3.2,1.4 3.2,3.1l0,0l1.5,0l2.2,0l0,-1.1l-2.4,0c-0.4,-1.5 -1.5,-2.7 -3,-3.3l0,-13.3l3.4,0c1.1,0 2,-0.9 2,-2l0,-9.4l-13.9,0l0,2.3zm6.9,7.2c-1,0 -1.9,-0.8 -1.9,-1.9c0,-1 0.8,-1.9 1.9,-1.9c1,0 1.9,0.8 1.9,1.9c0,1.1 -0.8,1.9 -1.9,1.9z" id="svg_3"/>
   <path d="m-114.5,33.5l-9.9,0c-1.1,0 -2,0.9 -2,2l0,0.7l13.9,0l0,-0.7c0,-1.1 -0.9,-2 -2,-2z" id="svg_4"/>
   <path d="m-116.3,66.7l0,0c-0.1,1.7 -1.5,3.1 -3.2,3.1s-3.2,-1.4 -3.2,-3.1l-1.5,0l-2.2,0l0,1.1l2.3,0c0.5,2 2.4,3.5 4.6,3.5s4,-1.5 4.6,-3.5l2.4,0l0,-1.1l-2.2,0l-1.6,0z" id="svg_5"/>
  </g>
  <g id="svg_6">
   <path d="m-140.3,43.8l-3.5,0c-0.4,-1.3 -1,-2.6 -1.6,-3.9l2.5,-2.5c1.2,-1.2 1.2,-3.1 0,-4.2l-7.2,-7.2c-1.2,-1.2 -3.1,-1.2 -4.2,0l-2.5,2.5c-1.2,-0.6 -2.5,-1.2 -3.9,-1.6l0,-3.5c0,-1.7 -1.3,-3 -3,-3l-10.1,0c-1.7,0 -3,1.3 -3,3l0,3.5c-1.3,0.4 -2.6,1 -3.9,1.6l-2.5,-2.5c-1.2,-1.2 -3.1,-1.2 -4.2,0l-7.2,7.2c-1.2,1.2 -1.2,3.1 0,4.2l2.5,2.5c-0.6,1.2 -1.2,2.5 -1.6,3.9l-3.5,0c-1.7,0 -3,1.3 -3,3l0,10.1c0,1.7 1.3,3 3,3l3.5,0c0.4,1.3 1,2.6 1.6,3.9l-2.5,2.5c-1.2,1.2 -1.2,3.1 0,4.2l7.2,7.2c1.2,1.2 3.1,1.2 4.2,0l2.5,-2.5c1.2,0.6 2.5,1.2 3.9,1.6l0,3.5c0,1.7 1.3,3 3,3l10.1,0c1.7,0 3,-1.3 3,-3l0,-3.5c1.3,-0.4 2.6,-1 3.9,-1.6l2.5,2.5c1.2,1.2 3.1,1.2 4.2,0l7.2,-7.2c1.2,-1.2 1.2,-3.1 0,-4.2l-2.5,-2.5c0.6,-1.2 1.2,-2.5 1.6,-3.9l3.5,0c1.7,0 3,-1.3 3,-3l0,-10.1c0,-1.7 -1.3,-3 -3,-3zm-28.4,28.2c-11.1,0 -20.2,-9 -20.2,-20.2c0,-11.1 9,-20.2 20.2,-20.2c11.1,0 20.2,9 20.2,20.2c0,11.2 -9.1,20.2 -20.2,20.2z" id="svg_7"/>
   <path d="m-168.7,36.2c-8.6,0 -15.6,7 -15.6,15.6s7,15.6 15.6,15.6s15.6,-7 15.6,-15.6s-7,-15.6 -15.6,-15.6zm0,27.2c-6.4,0 -11.6,-5.2 -11.6,-11.6s5.2,-11.6 11.6,-11.6s11.6,5.2 11.6,11.6s-5.2,11.6 -11.6,11.6z" id="svg_8"/>
  </g>
  <g id="svg_9">
   <path d="m-240.8,44.1l-3.5,0c-0.4,-1.3 -1,-2.6 -1.6,-3.9l2.5,-2.5c1.2,-1.2 1.2,-3.1 0,-4.2l-7.2,-7.2c-1.2,-1.2 -3.1,-1.2 -4.2,0l-2.5,2.5c-1.2,-0.6 -2.5,-1.2 -3.9,-1.6l0,-3.5c0,-1.7 -1.3,-3 -3,-3l-10.1,0c-1.7,0 -3,1.3 -3,3l0,3.5c-1.3,0.4 -2.6,1 -3.9,1.6l-2.5,-2.5c-1.2,-1.2 -3.1,-1.2 -4.2,0l-7.2,7.2c-1.2,1.2 -1.2,3.1 0,4.2l2.5,2.5c-0.6,1.2 -1.2,2.5 -1.6,3.9l-3.5,0c-1.7,0 -3,1.3 -3,3l0,10.1c0,1.7 1.3,3 3,3l3.5,0c0.4,1.3 1,2.6 1.6,3.9l-2.5,2.5c-1.2,1.2 -1.2,3.1 0,4.2l7.2,7.2c1.2,1.2 3.1,1.2 4.2,0l2.5,-2.5c1.2,0.6 2.5,1.2 3.9,1.6l0,3.5c0,1.7 1.3,3 3,3l10.1,0c1.7,0 3,-1.3 3,-3l0,-3.5c1.3,-0.4 2.6,-1 3.9,-1.6l2.5,2.5c1.2,1.2 3.1,1.2 4.2,0l7.2,-7.2c1.2,-1.2 1.2,-3.1 0,-4.2l-2.5,-2.5c0.6,-1.2 1.2,-2.5 1.6,-3.9l3.5,0c1.7,0 3,-1.3 3,-3l0,-10.1c0,-1.6 -1.3,-3 -3,-3zm-28.4,28.2c-11.1,0 -20.2,-9 -20.2,-20.2c0,-11.1 9,-20.2 20.2,-20.2c11.1,0 20.2,9 20.2,20.2c0,11.2 -9.1,20.2 -20.2,20.2z" id="svg_10"/>
   <path d="m-269.2,36.6c-8.6,0 -15.6,7 -15.6,15.6s7,15.6 15.6,15.6s15.6,-7 15.6,-15.6s-7,-15.6 -15.6,-15.6zm0,27.1c-6.4,0 -11.6,-5.2 -11.6,-11.6s5.2,-11.6 11.6,-11.6s11.6,5.2 11.6,11.6s-5.2,11.6 -11.6,11.6z" id="svg_11"/>
   <path d="m-211.3,25.7l-1.7,0c-0.2,-0.7 -0.5,-1.3 -0.8,-1.9l1.2,-1.2c0.6,-0.6 0.6,-1.5 0,-2.1l-3.6,-3.6c-0.6,-0.6 -1.5,-0.6 -2.1,0l-1.2,1.2c-0.6,-0.3 -1.3,-0.6 -1.9,-0.8l0,-1.7c0,-0.8 -0.7,-1.5 -1.5,-1.5l-5,0c-0.8,0 -1.5,0.7 -1.5,1.5l0,1.7c-0.7,0.2 -1.3,0.5 -1.9,0.8l-1.2,-1.2c-0.6,-0.6 -1.5,-0.6 -2.1,0l-3.6,3.6c-0.6,0.6 -0.6,1.5 0,2.1l1.2,1.2c-0.3,0.6 -0.6,1.3 -0.8,1.9l-1.7,0c-0.8,0 -1.5,0.7 -1.5,1.5l0,5c0,0.8 0.7,1.5 1.5,1.5l1.7,0c0.2,0.7 0.5,1.3 0.8,1.9l-1.2,1.2c-0.6,0.6 -0.6,1.5 0,2.1l3.6,3.6c0.6,0.6 1.5,0.6 2.1,0l1.2,-1.2c0.6,0.3 1.3,0.6 1.9,0.8l0,1.7c0,0.8 0.7,1.5 1.5,1.5l5,0c0.8,0 1.5,-0.7 1.5,-1.5l0,-1.7c0.7,-0.2 1.3,-0.5 1.9,-0.8l1.2,1.2c0.6,0.6 1.5,0.6 2.1,0l3.6,-3.6c0.6,-0.6 0.6,-1.5 0,-2.1l-1.2,-1.2c0.3,-0.6 0.6,-1.3 0.8,-1.9l1.7,0c0.8,0 1.5,-0.7 1.5,-1.5l0,-5c0,-0.8 -0.7,-1.5 -1.5,-1.5zm-14.2,14.1c-5.5,0 -10,-4.5 -10,-10s4.5,-10 10,-10s10,4.5 10,10s-4.4,10 -10,10z" id="svg_12"/>
   <path d="m-225.5,22c-4.3,0 -7.8,3.5 -7.8,7.8c0,4.3 3.5,7.8 7.8,7.8s7.8,-3.5 7.8,-7.8c0,-4.3 -3.5,-7.8 -7.8,-7.8zm0,13.5c-3.2,0 -5.8,-2.6 -5.8,-5.8c0,-3.2 2.6,-5.8 5.8,-5.8s5.8,2.6 5.8,5.8c0,3.2 -2.6,5.8 -5.8,5.8z" id="svg_13"/>
  </g>
 </g>
</svg>